<mxfile host="app.diagrams.net" modified="2023-11-30T10:54:00.297Z" agent="Mozilla/5.0 (Windows NT 10.0; Win64; x64) AppleWebKit/537.36 (KHTML, like Gecko) Chrome/119.0.0.0 Safari/537.36" version="22.1.5" etag="nEqhzlmaBtgpan2-6zfF" type="github">
  <diagram name="Page-1" id="L68lLQVjYZ7R9NyL-jPb">
    <mxGraphModel>
      <root>
        <mxCell id="0" />
        <mxCell id="1" parent="0" />
      </root>
    </mxGraphModel>
  </diagram>
</mxfile>
